<svg
  xmlns="http://www.w3.org/2000/svg"
  width="256"
  height="256"
  viewBox="0 0 256 256"
  fill="none"
>
  <rect width="256" height="256" rx="56" fill="#EDE0CE" />
  <rect
    x="22"
    y="20"
    width="212"
    height="216"
    rx="48"
    fill="#F7F0E8"
    stroke="#8B6F5B"
    stroke-width="6"
  />
  <path
    d="M58 90C73 60 106 44 142 48C177 52 204 78 208 112C212 144 194 178 162 193C130 208 90 201 66 174C43 149 41 117 58 90Z"
    fill="#B8CEDD"
    fill-opacity="0.75"
  />
  <path
    d="M82 70C104 61 130 60 152 67C174 75 192 92 201 114"
    stroke="#A25D4F"
    stroke-linecap="round"
    stroke-width="9"
  />
  <path
    d="M86 119L110 146L170 95"
    stroke="#6C8168"
    stroke-linecap="round"
    stroke-linejoin="round"
    stroke-width="18"
  />
  <circle cx="70" cy="68" r="6" fill="#A25D4F" fill-opacity="0.7" />
  <circle cx="186" cy="186" r="8" fill="#C4A484" fill-opacity="0.75" />
</svg>
